ffmpeg started on 2025-05-05 at 11:01:18
Report written to "D:\Convert\FFMetrics\reports\psnr_report-6.txt"
Log level: 32
Command line:
ffmpeg -hide_banner -nostdin -i "G:\\\xc0\xed\xe8\xec\xe5\\\xce\xed\xe3\xee\xe8\xed\xe3\xe8\\!_35_\xcb\xe5\xf2\xee_2024\\JamClub-1\\\xdd\xf2\xee\xf2 \xec\xe8\xf0 \xf1\xeb\xe8\xf8\xea\xee\xec \xed\xe5\xf1\xee\xe2\xe5\xf0\xf8\xe5\xed\xe5\xed\\JamClub_Kono_Sekai_wa_Fukanzen_Sugiru_06_1080p_HEVC.mkv" -i "G:\\\xc0\xed\xe8\xec\xe5\\\xce\xed\xe3\xee\xe8\xed\xe3\xe8\\!_35_\xcb\xe5\xf2\xee_2024\\JamClub-1\\\xdd\xf2\xee\xf2 \xec\xe8\xf0 \xf1\xeb\xe8\xf8\xea\xee\xec \xed\xe5\xf1\xee\xe2\xe5\xf0\xf8\xe5\xed\xe5\xed\\JamClub_Kono_Sekai_wa_Fukanzen_Sugiru_06_1080p.mp4" -lavfi "[0:v]settb=AVTB,setpts=PTS-STARTPTS,format=pix_fmts=yuv420p10,fps=24000/1001,scale=1920:1080:flags=bicubic[main];[1:v]settb=AVTB,setpts=PTS-STARTPTS,format=pix_fmts=yuv420p,fps=24000/1001,scale=1920:1080:flags=bicubic[ref];[main][ref]psnr=eof_action=endall:stats_file='D\\:/Convert/FFMetrics/logs/psnr_logfile-6.txt'" -f null -
Input #0, matroska,webm, from 'G:\Аниме\Онгоинги\!_35_Лето_2024\JamClub-1\Этот мир слишком несовершенен\JamClub_Kono_Sekai_wa_Fukanzen_Sugiru_06_1080p_HEVC.mkv':
  Metadata:
    COMPATIBLE_BRANDS: isomiso2avc1mp41
    MAJOR_BRAND     : isom
    MINOR_VERSION   : 512
    ENCODER         : Lavf61.7.100
  Duration: 00:24:27.35, start: -0.001000, bitrate: 1398 kb/s
  Stream #0:0: Video: hevc (Main 10), yuv420p10le(tv, bt709, progressive), 1920x1080 [SAR 1:1 DAR 16:9], 23.98 fps, 23.98 tbr, 1k tbn (default)
      Metadata:
        HANDLER_NAME    : VideoHandler
        VENDOR_ID       : [0][0][0][0]
        ENCODER         : Lavc61.19.100 libx265
        BPS             : 1199875
        DURATION        : 00:24:27.215708333
        NUMBER_OF_FRAMES: 35178
        NUMBER_OF_BYTES : 220059343
        _STATISTICS_WRITING_APP: mkvpropedit v66.0.0 ('Josie') 64-bit
        _STATISTICS_WRITING_DATE_UTC: 2025-05-04 16:23:30
        _STATISTICS_TAGS: BPS DURATION NUMBER_OF_FRAMES NUMBER_OF_BYTES
  Stream #0:1(eng): Audio: aac (LC), 48000 Hz, stereo, fltp (default)
      Metadata:
        HANDLER_NAME    : SoundHandler
        VENDOR_ID       : [0][0][0][0]
        ENCODER         : Lavc61.19.100 aac
        BPS             : 194513
        DURATION        : 00:24:27.309000000
        NUMBER_OF_FRAMES: 68781
        NUMBER_OF_BYTES : 35676449
        _STATISTICS_WRITING_APP: mkvpropedit v66.0.0 ('Josie') 64-bit
        _STATISTICS_WRITING_DATE_UTC: 2025-05-04 16:23:30
        _STATISTICS_TAGS: BPS DURATION NUMBER_OF_FRAMES NUMBER_OF_BYTES
Input #1, mov,mp4,m4a,3gp,3g2,mj2, from 'G:\Аниме\Онгоинги\!_35_Лето_2024\JamClub-1\Этот мир слишком несовершенен\JamClub_Kono_Sekai_wa_Fukanzen_Sugiru_06_1080p.mp4':
  Metadata:
    major_brand     : isom
    minor_version   : 512
    compatible_brands: isomiso2avc1mp41
    encoder         : Lavf60.16.100
  Duration: 00:24:27.33, start: 0.000000, bitrate: 3796 kb/s
  Stream #1:0[0x1](und): Video: h264 (High) (avc1 / 0x31637661), yuv420p(progressive), 1920x1080 [SAR 1:1 DAR 16:9], 3598 kb/s, 23.98 fps, 23.98 tbr, 90k tbn (default)
      Metadata:
        handler_name    : VideoHandler
        vendor_id       : [0][0][0][0]
  Stream #1:1[0x2](eng): Audio: aac (LC) (mp4a / 0x6134706D), 48000 Hz, stereo, fltp, 191 kb/s (default)
      Metadata:
        handler_name    : SoundHandler
        vendor_id       : [0][0][0][0]
Stream mapping:
  Stream #0:0 (hevc) -> settb:default
  Stream #1:0 (h264) -> settb:default
  psnr:default -> Stream #0:0 (wrapped_avframe)
  Stream #0:1 -> #0:1 (aac (native) -> pcm_s16le (native))
Output #0, null, to 'pipe:':
  Metadata:
    COMPATIBLE_BRANDS: isomiso2avc1mp41
    MAJOR_BRAND     : isom
    MINOR_VERSION   : 512
    encoder         : Lavf61.7.100
  Stream #0:0: Video: wrapped_avframe, yuv420p10le(tv, bt709, progressive), 1920x1080 [SAR 1:1 DAR 16:9], q=2-31, 200 kb/s, 23.98 fps, 23.98 tbn
      Metadata:
        encoder         : Lavc61.19.100 wrapped_avframe
  Stream #0:1(eng): Audio: pcm_s16le, 48000 Hz, stereo, s16, 1536 kb/s (default)
      Metadata:
        HANDLER_NAME    : SoundHandler
        VENDOR_ID       : [0][0][0][0]
        _STATISTICS_TAGS: BPS DURATION NUMBER_OF_FRAMES NUMBER_OF_BYTES
        BPS             : 194513
        DURATION        : 00:24:27.309000000
        NUMBER_OF_FRAMES: 68781
        NUMBER_OF_BYTES : 35676449
        _STATISTICS_WRITING_APP: mkvpropedit v66.0.0 ('Josie') 64-bit
        _STATISTICS_WRITING_DATE_UTC: 2025-05-04 16:23:30
        encoder         : Lavc61.19.100 pcm_s16le
frame=  105 fps=0.0 q=-0.0 size=N/A time=00:00:04.37 bitrate=N/A speed=8.56x    frame=  255 fps=247 q=-0.0 size=N/A time=00:00:10.63 bitrate=N/A speed=10.3x    frame=  433 fps=281 q=-0.0 size=N/A time=00:00:18.05 bitrate=N/A speed=11.7x    frame=  612 fps=297 q=-0.0 size=N/A time=00:00:25.52 bitrate=N/A speed=12.4x    frame=  825 fps=319 q=-0.0 size=N/A time=00:00:34.40 bitrate=N/A speed=13.3x    frame= 1004 fps=323 q=-0.0 size=N/A time=00:00:41.87 bitrate=N/A speed=13.5x    frame= 1231 fps=339 q=-0.0 size=N/A time=00:00:51.34 bitrate=N/A speed=14.1x    frame= 1430 fps=345 q=-0.0 size=N/A time=00:00:59.64 bitrate=N/A speed=14.4x    frame= 1670 fps=358 q=-0.0 size=N/A time=00:01:09.65 bitrate=N/A speed=14.9x    frame= 1867 fps=361 q=-0.0 size=N/A time=00:01:17.86 bitrate=N/A speed=  15x    frame= 2065 fps=363 q=-0.0 size=N/A time=00:01:26.12 bitrate=N/A speed=15.2x    frame= 2282 fps=368 q=-0.0 size=N/A time=00:01:35.17 bitrate=N/A speed=15.3x    frame= 2502 fps=372 q=-0.0 size=N/A time=00:01:44.35 bitrate=N/A speed=15.5x    frame= 2683 fps=371 q=-0.0 size=N/A time=00:01:51.90 bitrate=N/A speed=15.5x    frame= 2877 fps=371 q=-0.0 size=N/A time=00:01:59.99 bitrate=N/A speed=15.5x    frame= 3106 fps=376 q=-0.0 size=N/A time=00:02:09.54 bitrate=N/A speed=15.7x    frame= 3293 fps=375 q=-0.0 size=N/A time=00:02:17.34 bitrate=N/A speed=15.6x    frame= 3413 fps=367 q=-0.0 size=N/A time=00:02:22.35 bitrate=N/A speed=15.3x    frame= 3569 fps=363 q=-0.0 size=N/A time=00:02:28.85 bitrate=N/A speed=15.2x    frame= 3756 fps=364 q=-0.0 size=N/A time=00:02:36.65 bitrate=N/A speed=15.2x    frame= 3985 fps=367 q=-0.0 size=N/A time=00:02:46.20 bitrate=N/A speed=15.3x    frame= 4195 fps=369 q=-0.0 size=N/A time=00:02:54.96 bitrate=N/A speed=15.4x    frame= 4379 fps=369 q=-0.0 size=N/A time=00:03:02.64 bitrate=N/A speed=15.4x    frame= 4584 fps=370 q=-0.0 size=N/A time=00:03:11.19 bitrate=N/A speed=15.4x    frame= 4764 fps=369 q=-0.0 size=N/A time=00:03:18.69 bitrate=N/A speed=15.4x    frame= 4945 fps=369 q=-0.0 size=N/A time=00:03:26.24 bitrate=N/A speed=15.4x    frame= 5115 fps=367 q=-0.0 size=N/A time=00:03:33.33 bitrate=N/A speed=15.3x    frame= 5340 fps=370 q=-0.0 size=N/A time=00:03:42.72 bitrate=N/A speed=15.4x    frame= 5574 fps=372 q=-0.0 size=N/A time=00:03:52.48 bitrate=N/A speed=15.5x    frame= 5800 fps=375 q=-0.0 size=N/A time=00:04:01.90 bitrate=N/A speed=15.6x    frame= 6051 fps=378 q=-0.0 size=N/A time=00:04:12.37 bitrate=N/A speed=15.8x    frame= 6323 fps=383 q=-0.0 size=N/A time=00:04:23.72 bitrate=N/A speed=  16x    frame= 6578 fps=386 q=-0.0 size=N/A time=00:04:34.35 bitrate=N/A speed=16.1x    frame= 6809 fps=388 q=-0.0 size=N/A time=00:04:43.99 bitrate=N/A speed=16.2x    frame= 7069 fps=391 q=-0.0 size=N/A time=00:04:54.83 bitrate=N/A speed=16.3x    frame= 7334 fps=395 q=-0.0 size=N/A time=00:05:05.88 bitrate=N/A speed=16.5x    frame= 7575 fps=396 q=-0.0 size=N/A time=00:05:15.94 bitrate=N/A speed=16.5x    frame= 7823 fps=398 q=-0.0 size=N/A time=00:05:26.28 bitrate=N/A speed=16.6x    frame= 8085 fps=401 q=-0.0 size=N/A time=00:05:37.21 bitrate=N/A speed=16.7x    frame= 8354 fps=404 q=-0.0 size=N/A time=00:05:48.43 bitrate=N/A speed=16.9x    frame= 8610 fps=407 q=-0.0 size=N/A time=00:05:59.10 bitrate=N/A speed=  17x    frame= 8847 fps=408 q=-0.0 size=N/A time=00:06:08.99 bitrate=N/A speed=  17x    frame= 9097 fps=410 q=-0.0 size=N/A time=00:06:19.42 bitrate=N/A speed=17.1x    frame= 9369 fps=412 q=-0.0 size=N/A time=00:06:30.76 bitrate=N/A speed=17.2x    frame= 9632 fps=415 q=-0.0 size=N/A time=00:06:41.73 bitrate=N/A speed=17.3x    frame= 9908 fps=417 q=-0.0 size=N/A time=00:06:53.24 bitrate=N/A speed=17.4x    frame=10147 fps=418 q=-0.0 size=N/A time=00:07:03.21 bitrate=N/A speed=17.4x    frame=10412 fps=420 q=-0.0 size=N/A time=00:07:14.26 bitrate=N/A speed=17.5x    frame=10672 fps=422 q=-0.0 size=N/A time=00:07:25.11 bitrate=N/A speed=17.6x    frame=10901 fps=422 q=-0.0 size=N/A time=00:07:34.66 bitrate=N/A speed=17.6x    frame=11110 fps=422 q=-0.0 size=N/A time=00:07:43.37 bitrate=N/A speed=17.6x    frame=11327 fps=422 q=-0.0 size=N/A time=00:07:52.43 bitrate=N/A speed=17.6x    frame=11492 fps=420 q=-0.0 size=N/A time=00:07:59.31 bitrate=N/A speed=17.5x    frame=11731 fps=421 q=-0.0 size=N/A time=00:08:09.28 bitrate=N/A speed=17.5x    frame=11994 fps=422 q=-0.0 size=N/A time=00:08:20.24 bitrate=N/A speed=17.6x    frame=12272 fps=424 q=-0.0 size=N/A time=00:08:31.84 bitrate=N/A speed=17.7x    frame=12551 fps=427 q=-0.0 size=N/A time=00:08:43.48 bitrate=N/A speed=17.8x    frame=12837 fps=429 q=-0.0 size=N/A time=00:08:55.40 bitrate=N/A speed=17.9x    frame=13090 fps=430 q=-0.0 size=N/A time=00:09:05.96 bitrate=N/A speed=17.9x    frame=13367 fps=432 q=-0.0 size=N/A time=00:09:17.51 bitrate=N/A speed=  18x    frame=13598 fps=432 q=-0.0 size=N/A time=00:09:27.14 bitrate=N/A speed=  18x    frame=13864 fps=433 q=-0.0 size=N/A time=00:09:38.24 bitrate=N/A speed=18.1x    frame=14130 fps=435 q=-0.0 size=N/A time=00:09:49.33 bitrate=N/A speed=18.1x    frame=14392 fps=436 q=-0.0 size=N/A time=00:10:00.26 bitrate=N/A speed=18.2x    frame=14656 fps=437 q=-0.0 size=N/A time=00:10:11.27 bitrate=N/A speed=18.2x    frame=14879 fps=437 q=-0.0 size=N/A time=00:10:20.57 bitrate=N/A speed=18.2x    frame=15145 fps=438 q=-0.0 size=N/A time=00:10:31.67 bitrate=N/A speed=18.3x    frame=15371 fps=438 q=-0.0 size=N/A time=00:10:41.09 bitrate=N/A speed=18.3x    frame=15613 fps=438 q=-0.0 size=N/A time=00:10:51.19 bitrate=N/A speed=18.3x    frame=15876 fps=439 q=-0.0 size=N/A time=00:11:02.16 bitrate=N/A speed=18.3x    frame=16116 fps=440 q=-0.0 size=N/A time=00:11:12.17 bitrate=N/A speed=18.3x    frame=16340 fps=440 q=-0.0 size=N/A time=00:11:21.51 bitrate=N/A speed=18.3x    frame=16582 fps=440 q=-0.0 size=N/A time=00:11:31.60 bitrate=N/A speed=18.4x    frame=16840 fps=441 q=-0.0 size=N/A time=00:11:42.36 bitrate=N/A speed=18.4x    frame=17051 fps=441 q=-0.0 size=N/A time=00:11:51.16 bitrate=N/A speed=18.4x    frame=17308 fps=441 q=-0.0 size=N/A time=00:12:01.88 bitrate=N/A speed=18.4x    frame=17552 fps=442 q=-0.0 size=N/A time=00:12:12.06 bitrate=N/A speed=18.4x    frame=17791 fps=442 q=-0.0 size=N/A time=00:12:22.03 bitrate=N/A speed=18.4x    frame=18027 fps=442 q=-0.0 size=N/A time=00:12:31.87 bitrate=N/A speed=18.4x    frame=18262 fps=442 q=-0.0 size=N/A time=00:12:41.67 bitrate=N/A speed=18.4x    frame=18503 fps=443 q=-0.0 size=N/A time=00:12:51.72 bitrate=N/A speed=18.5x    frame=18749 fps=443 q=-0.0 size=N/A time=00:13:01.98 bitrate=N/A speed=18.5x    frame=18960 fps=443 q=-0.0 size=N/A time=00:13:10.79 bitrate=N/A speed=18.5x    frame=19191 fps=443 q=-0.0 size=N/A time=00:13:20.42 bitrate=N/A speed=18.5x    frame=19365 fps=441 q=-0.0 size=N/A time=00:13:27.68 bitrate=N/A speed=18.4x    frame=19615 fps=442 q=-0.0 size=N/A time=00:13:38.10 bitrate=N/A speed=18.4x    frame=19876 fps=443 q=-0.0 size=N/A time=00:13:48.99 bitrate=N/A speed=18.5x    frame=20106 fps=443 q=-0.0 size=N/A time=00:13:58.58 bitrate=N/A speed=18.5x    frame=20334 fps=443 q=-0.0 size=N/A time=00:14:08.09 bitrate=N/A speed=18.5x    frame=20568 fps=443 q=-0.0 size=N/A time=00:14:17.85 bitrate=N/A speed=18.5x    frame=20745 fps=442 q=-0.0 size=N/A time=00:14:25.23 bitrate=N/A speed=18.4x    frame=20960 fps=442 q=-0.0 size=N/A time=00:14:34.20 bitrate=N/A speed=18.4x    frame=21216 fps=442 q=-0.0 size=N/A time=00:14:44.88 bitrate=N/A speed=18.4x    frame=21469 fps=443 q=-0.0 size=N/A time=00:14:55.43 bitrate=N/A speed=18.5x    frame=21707 fps=443 q=-0.0 size=N/A time=00:15:05.36 bitrate=N/A speed=18.5x    frame=21941 fps=443 q=-0.0 size=N/A time=00:15:15.12 bitrate=N/A speed=18.5x    frame=22194 fps=443 q=-0.0 size=N/A time=00:15:25.67 bitrate=N/A speed=18.5x    frame=22403 fps=443 q=-0.0 size=N/A time=00:15:34.39 bitrate=N/A speed=18.5x    frame=22608 fps=443 q=-0.0 size=N/A time=00:15:42.94 bitrate=N/A speed=18.5x    frame=22847 fps=443 q=-0.0 size=N/A time=00:15:52.91 bitrate=N/A speed=18.5x    frame=23112 fps=443 q=-0.0 size=N/A time=00:16:03.96 bitrate=N/A speed=18.5x    frame=23371 fps=444 q=-0.0 size=N/A time=00:16:14.76 bitrate=N/A speed=18.5x    frame=23623 fps=445 q=-0.0 size=N/A time=00:16:25.27 bitrate=N/A speed=18.5x    frame=23885 fps=445 q=-0.0 size=N/A time=00:16:36.20 bitrate=N/A speed=18.6x    frame=24139 fps=446 q=-0.0 size=N/A time=00:16:46.79 bitrate=N/A speed=18.6x    frame=24394 fps=446 q=-0.0 size=N/A time=00:16:57.43 bitrate=N/A speed=18.6x    frame=24629 fps=446 q=-0.0 size=N/A time=00:17:07.23 bitrate=N/A speed=18.6x    frame=24833 fps=446 q=-0.0 size=N/A time=00:17:15.74 bitrate=N/A speed=18.6x    frame=25063 fps=446 q=-0.0 size=N/A time=00:17:25.33 bitrate=N/A speed=18.6x    frame=25314 fps=446 q=-0.0 size=N/A time=00:17:35.80 bitrate=N/A speed=18.6x    frame=25563 fps=446 q=-0.0 size=N/A time=00:17:46.19 bitrate=N/A speed=18.6x    frame=25831 fps=447 q=-0.0 size=N/A time=00:17:57.36 bitrate=N/A speed=18.6x    frame=26059 fps=447 q=-0.0 size=N/A time=00:18:06.87 bitrate=N/A speed=18.6x    frame=26300 fps=447 q=-0.0 size=N/A time=00:18:16.92 bitrate=N/A speed=18.7x    frame=26562 fps=448 q=-0.0 size=N/A time=00:18:27.85 bitrate=N/A speed=18.7x    frame=26767 fps=447 q=-0.0 size=N/A time=00:18:36.40 bitrate=N/A speed=18.7x    frame=26944 fps=446 q=-0.0 size=N/A time=00:18:43.78 bitrate=N/A speed=18.6x    frame=27144 fps=446 q=-0.0 size=N/A time=00:18:52.13 bitrate=N/A speed=18.6x    frame=27388 fps=446 q=-0.0 size=N/A time=00:19:02.30 bitrate=N/A speed=18.6x    frame=27631 fps=446 q=-0.0 size=N/A time=00:19:12.44 bitrate=N/A speed=18.6x    frame=27859 fps=446 q=-0.0 size=N/A time=00:19:21.95 bitrate=N/A speed=18.6x    frame=28082 fps=446 q=-0.0 size=N/A time=00:19:31.25 bitrate=N/A speed=18.6x    frame=28275 fps=446 q=-0.0 size=N/A time=00:19:39.30 bitrate=N/A speed=18.6x    frame=28501 fps=446 q=-0.0 size=N/A time=00:19:48.72 bitrate=N/A speed=18.6x    frame=28734 fps=446 q=-0.0 size=N/A time=00:19:58.44 bitrate=N/A speed=18.6x    frame=28965 fps=446 q=-0.0 size=N/A time=00:20:08.08 bitrate=N/A speed=18.6x    frame=29192 fps=446 q=-0.0 size=N/A time=00:20:17.54 bitrate=N/A speed=18.6x    frame=29419 fps=446 q=-0.0 size=N/A time=00:20:27.01 bitrate=N/A speed=18.6x    frame=29665 fps=446 q=-0.0 size=N/A time=00:20:37.27 bitrate=N/A speed=18.6x    frame=29870 fps=445 q=-0.0 size=N/A time=00:20:45.82 bitrate=N/A speed=18.6x    frame=30088 fps=445 q=-0.0 size=N/A time=00:20:54.92 bitrate=N/A speed=18.6x    frame=30283 fps=445 q=-0.0 size=N/A time=00:21:03.05 bitrate=N/A speed=18.5x    frame=30512 fps=445 q=-0.0 size=N/A time=00:21:12.60 bitrate=N/A speed=18.5x    frame=30762 fps=445 q=-0.0 size=N/A time=00:21:23.03 bitrate=N/A speed=18.6x    frame=31009 fps=445 q=-0.0 size=N/A time=00:21:33.33 bitrate=N/A speed=18.6x    frame=31248 fps=445 q=-0.0 size=N/A time=00:21:43.30 bitrate=N/A speed=18.6x    frame=31469 fps=445 q=-0.0 size=N/A time=00:21:52.51 bitrate=N/A speed=18.6x    frame=31701 fps=445 q=-0.0 size=N/A time=00:22:02.19 bitrate=N/A speed=18.6x    frame=31950 fps=446 q=-0.0 size=N/A time=00:22:12.58 bitrate=N/A speed=18.6x    frame=32163 fps=445 q=-0.0 size=N/A time=00:22:21.46 bitrate=N/A speed=18.6x    frame=32426 fps=446 q=-0.0 size=N/A time=00:22:32.43 bitrate=N/A speed=18.6x    frame=32675 fps=446 q=-0.0 size=N/A time=00:22:42.81 bitrate=N/A speed=18.6x    frame=32896 fps=446 q=-0.0 size=N/A time=00:22:52.03 bitrate=N/A speed=18.6x    frame=33121 fps=446 q=-0.0 size=N/A time=00:23:01.42 bitrate=N/A speed=18.6x    frame=33312 fps=445 q=-0.0 size=N/A time=00:23:09.38 bitrate=N/A speed=18.6x    frame=33503 fps=445 q=-0.0 size=N/A time=00:23:17.35 bitrate=N/A speed=18.6x    frame=33706 fps=444 q=-0.0 size=N/A time=00:23:25.82 bitrate=N/A speed=18.5x    frame=33908 fps=444 q=-0.0 size=N/A time=00:23:34.24 bitrate=N/A speed=18.5x    frame=34046 fps=443 q=-0.0 size=N/A time=00:23:40.00 bitrate=N/A speed=18.5x    frame=34243 fps=443 q=-0.0 size=N/A time=00:23:48.21 bitrate=N/A speed=18.5x    frame=34413 fps=442 q=-0.0 size=N/A time=00:23:55.30 bitrate=N/A speed=18.4x    frame=34598 fps=441 q=-0.0 size=N/A time=00:24:03.02 bitrate=N/A speed=18.4x    frame=34806 fps=441 q=-0.0 size=N/A time=00:24:11.70 bitrate=N/A speed=18.4x    frame=35025 fps=441 q=-0.0 size=N/A time=00:24:20.83 bitrate=N/A speed=18.4x    [Parsed_psnr_10 @ 0000016f20f55b00] PSNR y:48.398787 u:50.150215 v:50.662395 average:48.968854 min:37.008766 max:inf
[out#0/null @ 0000016f1a12ec00] video:15116KiB audio:275124KiB subtitle:0KiB other streams:0KiB global headers:0KiB muxing overhead: unknown
frame=35178 fps=441 q=-0.0 Lsize=N/A time=00:24:27.21 bitrate=N/A speed=18.4x    
